<svg xmlns="http://www.w3.org/2000/svg" width="1600" height="1000" viewBox="0 0 1600 1000" role="img" aria-labelledby="title desc">
  <title id="title">Bella AI case study cover</title>
  <desc id="desc">Abstract cover for a multi-tenant student management platform case study.</desc>
  <rect width="1600" height="1000" fill="#101418"/>
  <rect x="120" y="120" width="1360" height="760" rx="24" fill="#151d22" stroke="#d6dde3" stroke-width="4"/>
  <rect x="184" y="190" width="480" height="82" rx="10" fill="#d6dde3" opacity=".92"/>
  <rect x="184" y="322" width="1232" height="4" fill="#d6dde3" opacity=".55"/>
  <g fill="none" stroke="#d6dde3" stroke-width="4" opacity=".9">
    <rect x="184" y="390" width="360" height="190" rx="14"/>
    <rect x="620" y="390" width="360" height="190" rx="14"/>
    <rect x="1056" y="390" width="360" height="190" rx="14"/>
    <rect x="184" y="650" width="1232" height="118" rx="14"/>
  </g>
  <g fill="#d6dde3" opacity=".75">
    <rect x="224" y="432" width="210" height="24" rx="6"/>
    <rect x="224" y="486" width="270" height="16" rx="4"/>
    <rect x="224" y="526" width="170" height="16" rx="4"/>
    <rect x="660" y="432" width="230" height="24" rx="6"/>
    <rect x="660" y="486" width="260" height="16" rx="4"/>
    <rect x="660" y="526" width="195" height="16" rx="4"/>
    <rect x="1096" y="432" width="190" height="24" rx="6"/>
    <rect x="1096" y="486" width="250" height="16" rx="4"/>
    <rect x="1096" y="526" width="170" height="16" rx="4"/>
    <rect x="224" y="694" width="320" height="22" rx="6"/>
    <rect x="620" y="694" width="260" height="22" rx="6"/>
    <rect x="956" y="694" width="310" height="22" rx="6"/>
  </g>
  <text x="184" y="258" fill="#101418" font-family="Arial, Helvetica, sans-serif" font-size="48" font-weight="700">BELLA AI</text>
  <text x="184" y="820" fill="#d6dde3" font-family="Arial, Helvetica, sans-serif" font-size="44" font-weight="700">Multi-tenant admin platform</text>
</svg>
